<mxfile host="app.diagrams.net" modified="2022-04-06T09:22:21.543Z" agent="5.0 (Windows)" etag="-Ds6XcC1P7eTihJtPhcg" version="17.4.0" type="github">
  <diagram id="IThwTLLGba7Q0fqvW59s" name="Page-1">
    <mxGraphModel dx="1422" dy="741" grid="1" gridSize="10" guides="1" tooltips="1" connect="1" arrows="1" fold="1" page="1" pageScale="1" pageWidth="827" pageHeight="1169" math="0" shadow="0">
      <root>
        <mxCell id="0" />
        <mxCell id="1" parent="0" />
        <mxCell id="mTSeAWRRw6Q3uPcNTbIo-3" style="edgeStyle=orthogonalEdgeStyle;rounded=0;orthogonalLoop=1;jettySize=auto;html=1;" parent="1" source="mTSeAWRRw6Q3uPcNTbIo-1" target="mTSeAWRRw6Q3uPcNTbIo-2" edge="1">
          <mxGeometry relative="1" as="geometry" />
        </mxCell>
        <mxCell id="mTSeAWRRw6Q3uPcNTbIo-6" style="edgeStyle=orthogonalEdgeStyle;rounded=0;orthogonalLoop=1;jettySize=auto;html=1;" parent="1" source="mTSeAWRRw6Q3uPcNTbIo-1" target="mTSeAWRRw6Q3uPcNTbIo-5" edge="1">
          <mxGeometry relative="1" as="geometry" />
        </mxCell>
        <mxCell id="mTSeAWRRw6Q3uPcNTbIo-1" value="Выбрать источник данных (Пользовательский диалог)" style="text;html=1;strokeColor=none;fillColor=none;align=center;verticalAlign=middle;whiteSpace=wrap;rounded=0;" parent="1" vertex="1">
          <mxGeometry x="250" y="20" width="240" height="30" as="geometry" />
        </mxCell>
        <mxCell id="mTSeAWRRw6Q3uPcNTbIo-8" style="edgeStyle=orthogonalEdgeStyle;rounded=0;orthogonalLoop=1;jettySize=auto;html=1;" parent="1" source="mTSeAWRRw6Q3uPcNTbIo-2" target="mTSeAWRRw6Q3uPcNTbIo-7" edge="1">
          <mxGeometry relative="1" as="geometry" />
        </mxCell>
        <mxCell id="mTSeAWRRw6Q3uPcNTbIo-11" value="Парсер XML" style="edgeLabel;html=1;align=center;verticalAlign=middle;resizable=0;points=[];" parent="mTSeAWRRw6Q3uPcNTbIo-8" vertex="1" connectable="0">
          <mxGeometry x="0.1263" relative="1" as="geometry">
            <mxPoint as="offset" />
          </mxGeometry>
        </mxCell>
        <mxCell id="mTSeAWRRw6Q3uPcNTbIo-2" value="XML УПД" style="rounded=0;whiteSpace=wrap;html=1;" parent="1" vertex="1">
          <mxGeometry x="80" y="110" width="120" height="60" as="geometry" />
        </mxCell>
        <mxCell id="mTSeAWRRw6Q3uPcNTbIo-9" style="edgeStyle=orthogonalEdgeStyle;rounded=0;orthogonalLoop=1;jettySize=auto;html=1;entryX=1;entryY=0.5;entryDx=0;entryDy=0;entryPerimeter=0;" parent="1" source="mTSeAWRRw6Q3uPcNTbIo-5" target="mTSeAWRRw6Q3uPcNTbIo-7" edge="1">
          <mxGeometry relative="1" as="geometry" />
        </mxCell>
        <mxCell id="mTSeAWRRw6Q3uPcNTbIo-10" value="Генератор&lt;br&gt;УПД из idoc на &lt;br&gt;основе idocconverter&#39;a" style="edgeLabel;html=1;align=center;verticalAlign=middle;resizable=0;points=[];" parent="mTSeAWRRw6Q3uPcNTbIo-9" vertex="1" connectable="0">
          <mxGeometry x="0.1636" y="3" relative="1" as="geometry">
            <mxPoint as="offset" />
          </mxGeometry>
        </mxCell>
        <mxCell id="mTSeAWRRw6Q3uPcNTbIo-5" value="idoc + xls" style="rounded=0;whiteSpace=wrap;html=1;" parent="1" vertex="1">
          <mxGeometry x="520" y="100" width="120" height="60" as="geometry" />
        </mxCell>
        <mxCell id="mTSeAWRRw6Q3uPcNTbIo-13" style="edgeStyle=orthogonalEdgeStyle;rounded=0;orthogonalLoop=1;jettySize=auto;html=1;exitX=0.5;exitY=1;exitDx=0;exitDy=0;exitPerimeter=0;" parent="1" source="mTSeAWRRw6Q3uPcNTbIo-7" target="mTSeAWRRw6Q3uPcNTbIo-12" edge="1">
          <mxGeometry relative="1" as="geometry" />
        </mxCell>
        <mxCell id="mTSeAWRRw6Q3uPcNTbIo-7" value="объект УПД для обработки" style="shape=cylinder3;whiteSpace=wrap;html=1;boundedLbl=1;backgroundOutline=1;size=15;" parent="1" vertex="1">
          <mxGeometry x="320" y="170" width="80" height="110" as="geometry" />
        </mxCell>
        <mxCell id="mTSeAWRRw6Q3uPcNTbIo-20" style="edgeStyle=orthogonalEdgeStyle;rounded=0;orthogonalLoop=1;jettySize=auto;html=1;exitX=0.5;exitY=1;exitDx=0;exitDy=0;" parent="1" source="mTSeAWRRw6Q3uPcNTbIo-12" target="mTSeAWRRw6Q3uPcNTbIo-19" edge="1">
          <mxGeometry relative="1" as="geometry" />
        </mxCell>
        <mxCell id="mTSeAWRRw6Q3uPcNTbIo-12" value="Табличный Пользовательский интерфейс&amp;nbsp; " style="shape=process;whiteSpace=wrap;html=1;backgroundOutline=1;" parent="1" vertex="1">
          <mxGeometry x="265" y="310" width="190" height="70" as="geometry" />
        </mxCell>
        <mxCell id="mTSeAWRRw6Q3uPcNTbIo-16" value="Выходной XML требуемого формата, пригодный для загрузки в ДиаДок" style="strokeWidth=2;html=1;shape=mxgraph.flowchart.document2;whiteSpace=wrap;size=0.25;" parent="1" vertex="1">
          <mxGeometry x="290" y="550" width="140" height="110" as="geometry" />
        </mxCell>
        <mxCell id="mTSeAWRRw6Q3uPcNTbIo-17" value="Позволяет просмотреть в табличном виде&lt;br&gt;основные атрибуты УПД, &lt;br&gt;отредактировать атрибуты (цена, количество, налог?)&lt;br&gt;изменить реквизиты (ЮЛ, оператор ЭДО и т.д)&lt;br&gt;" style="strokeWidth=2;html=1;shape=mxgraph.flowchart.annotation_2;align=left;labelPosition=right;pointerEvents=1;" parent="1" vertex="1">
          <mxGeometry x="455" y="295" width="109" height="100" as="geometry" />
        </mxCell>
        <mxCell id="mTSeAWRRw6Q3uPcNTbIo-22" style="edgeStyle=orthogonalEdgeStyle;rounded=0;orthogonalLoop=1;jettySize=auto;html=1;" parent="1" source="mTSeAWRRw6Q3uPcNTbIo-19" target="mTSeAWRRw6Q3uPcNTbIo-16" edge="1">
          <mxGeometry relative="1" as="geometry" />
        </mxCell>
        <mxCell id="mTSeAWRRw6Q3uPcNTbIo-19" value="Выбор типа результирующего &lt;br&gt;документа: УПД\УПДи\УКД" style="shape=parallelogram;perimeter=parallelogramPerimeter;whiteSpace=wrap;html=1;fixedSize=1;" parent="1" vertex="1">
          <mxGeometry x="240" y="440" width="240" height="60" as="geometry" />
        </mxCell>
        <mxCell id="mTSeAWRRw6Q3uPcNTbIo-21" value="Пользователь выбирает что хочет получить,&lt;br&gt;программа автоматически блокирует &lt;br&gt;недоступные пункты. Например при редактировании цен&lt;br&gt;можно сфрмировать только УКД" style="strokeWidth=2;html=1;shape=mxgraph.flowchart.annotation_2;align=left;labelPosition=right;pointerEvents=1;" parent="1" vertex="1">
          <mxGeometry x="470" y="420" width="86.5" height="100" as="geometry" />
        </mxCell>
        <mxCell id="mTSeAWRRw6Q3uPcNTbIo-23" value="Пользователь прикладывает idoc&lt;br&gt;и xls файл определённого формата&lt;br&gt;шаблон определяется автоматически&lt;br&gt;на основе алгоритма idoc converter&#39;a" style="strokeWidth=2;html=1;shape=mxgraph.flowchart.annotation_2;align=left;labelPosition=right;pointerEvents=1;" parent="1" vertex="1">
          <mxGeometry x="640" y="80" width="109" height="100" as="geometry" />
        </mxCell>
      </root>
    </mxGraphModel>
  </diagram>
</mxfile>
